<mxfile host="app.diagrams.net" modified="2022-11-10T10:20:07.698Z" agent="5.0 (Windows)" etag="AsnjMXMfPE3g7IJhDotH" version="20.5.3" type="github">
  <diagram id="5ldK_oipGB4rz3VrduSO" name="Page-1">
    <mxGraphModel dx="1446" dy="793" grid="1" gridSize="10" guides="1" tooltips="1" connect="1" arrows="1" fold="1" page="1" pageScale="1" pageWidth="850" pageHeight="1100" math="0" shadow="0">
      <root>
        <mxCell id="0" />
        <mxCell id="1" parent="0" />
        <mxCell id="BQARD5PICSiKDkB4O1Qn-21" style="edgeStyle=orthogonalEdgeStyle;rounded=0;orthogonalLoop=1;jettySize=auto;html=1;entryX=0.417;entryY=0;entryDx=0;entryDy=0;entryPerimeter=0;" edge="1" parent="1" source="BQARD5PICSiKDkB4O1Qn-1" target="BQARD5PICSiKDkB4O1Qn-4">
          <mxGeometry relative="1" as="geometry">
            <Array as="points">
              <mxPoint x="230" y="339" />
              <mxPoint x="230" y="520" />
            </Array>
          </mxGeometry>
        </mxCell>
        <mxCell id="BQARD5PICSiKDkB4O1Qn-1" value="" style="sketch=0;outlineConnect=0;fontColor=#232F3E;gradientColor=none;fillColor=#4D27AA;strokeColor=none;dashed=0;verticalLabelPosition=bottom;verticalAlign=top;align=center;html=1;fontSize=12;fontStyle=0;aspect=fixed;pointerEvents=1;shape=mxgraph.aws4.router;" vertex="1" parent="1">
          <mxGeometry x="340" y="300" width="78" height="78" as="geometry" />
        </mxCell>
        <mxCell id="BQARD5PICSiKDkB4O1Qn-2" value="" style="sketch=0;outlineConnect=0;fontColor=#232F3E;gradientColor=none;fillColor=#4D27AA;strokeColor=none;dashed=0;verticalLabelPosition=bottom;verticalAlign=top;align=center;html=1;fontSize=12;fontStyle=0;aspect=fixed;pointerEvents=1;shape=mxgraph.aws4.router;" vertex="1" parent="1">
          <mxGeometry x="660" y="300" width="78" height="78" as="geometry" />
        </mxCell>
        <mxCell id="BQARD5PICSiKDkB4O1Qn-3" value="" style="sketch=0;outlineConnect=0;fontColor=#232F3E;gradientColor=none;fillColor=#4D27AA;strokeColor=none;dashed=0;verticalLabelPosition=bottom;verticalAlign=top;align=center;html=1;fontSize=12;fontStyle=0;aspect=fixed;pointerEvents=1;shape=mxgraph.aws4.router;" vertex="1" parent="1">
          <mxGeometry x="990" y="300" width="78" height="78" as="geometry" />
        </mxCell>
        <mxCell id="BQARD5PICSiKDkB4O1Qn-4" value="" style="ellipse;shape=cloud;whiteSpace=wrap;html=1;" vertex="1" parent="1">
          <mxGeometry x="180" y="520" width="120" height="80" as="geometry" />
        </mxCell>
        <mxCell id="BQARD5PICSiKDkB4O1Qn-5" value="&lt;div&gt;RTR1&lt;/div&gt;" style="text;html=1;align=center;verticalAlign=middle;resizable=0;points=[];autosize=1;strokeColor=none;fillColor=none;" vertex="1" parent="1">
          <mxGeometry x="354" y="390" width="50" height="30" as="geometry" />
        </mxCell>
        <mxCell id="BQARD5PICSiKDkB4O1Qn-6" value="&lt;div&gt;RTR2&lt;br&gt;&lt;/div&gt;" style="text;html=1;align=center;verticalAlign=middle;resizable=0;points=[];autosize=1;strokeColor=none;fillColor=none;" vertex="1" parent="1">
          <mxGeometry x="674" y="390" width="50" height="30" as="geometry" />
        </mxCell>
        <mxCell id="BQARD5PICSiKDkB4O1Qn-7" value="RTR3" style="text;html=1;align=center;verticalAlign=middle;resizable=0;points=[];autosize=1;strokeColor=none;fillColor=none;" vertex="1" parent="1">
          <mxGeometry x="1004" y="390" width="50" height="30" as="geometry" />
        </mxCell>
        <mxCell id="BQARD5PICSiKDkB4O1Qn-9" value="" style="endArrow=none;html=1;rounded=0;" edge="1" parent="1" source="BQARD5PICSiKDkB4O1Qn-2" target="BQARD5PICSiKDkB4O1Qn-3">
          <mxGeometry width="50" height="50" relative="1" as="geometry">
            <mxPoint x="700" y="490" as="sourcePoint" />
            <mxPoint x="750" y="440" as="targetPoint" />
          </mxGeometry>
        </mxCell>
        <mxCell id="BQARD5PICSiKDkB4O1Qn-10" value="" style="endArrow=none;html=1;rounded=0;" edge="1" parent="1" source="BQARD5PICSiKDkB4O1Qn-1" target="BQARD5PICSiKDkB4O1Qn-2">
          <mxGeometry width="50" height="50" relative="1" as="geometry">
            <mxPoint x="430" y="518.95" as="sourcePoint" />
            <mxPoint x="682" y="518.95" as="targetPoint" />
          </mxGeometry>
        </mxCell>
        <mxCell id="BQARD5PICSiKDkB4O1Qn-14" value="&lt;div&gt;ETH1&lt;/div&gt;&lt;div&gt;172.15.255.254&lt;br&gt;&lt;/div&gt;" style="text;html=1;align=center;verticalAlign=middle;resizable=0;points=[];autosize=1;strokeColor=none;fillColor=none;" vertex="1" parent="1">
          <mxGeometry x="425" y="350" width="110" height="40" as="geometry" />
        </mxCell>
        <mxCell id="BQARD5PICSiKDkB4O1Qn-15" value="&lt;div&gt;ETH1&lt;/div&gt;&lt;div&gt;172.15.255.253&lt;br&gt;&lt;/div&gt;" style="text;html=1;align=center;verticalAlign=middle;resizable=0;points=[];autosize=1;strokeColor=none;fillColor=none;" vertex="1" parent="1">
          <mxGeometry x="550" y="350" width="110" height="40" as="geometry" />
        </mxCell>
        <mxCell id="BQARD5PICSiKDkB4O1Qn-16" value="&lt;div&gt;ETH1&lt;/div&gt;192.168.1.254" style="text;html=1;align=center;verticalAlign=middle;resizable=0;points=[];autosize=1;strokeColor=none;fillColor=none;" vertex="1" parent="1">
          <mxGeometry x="745" y="350" width="100" height="40" as="geometry" />
        </mxCell>
        <mxCell id="BQARD5PICSiKDkB4O1Qn-17" value="&lt;div&gt;ETH1&lt;/div&gt;192.168.1.253" style="text;html=1;align=center;verticalAlign=middle;resizable=0;points=[];autosize=1;strokeColor=none;fillColor=none;" vertex="1" parent="1">
          <mxGeometry x="885" y="350" width="100" height="40" as="geometry" />
        </mxCell>
        <mxCell id="BQARD5PICSiKDkB4O1Qn-18" value="&lt;div&gt;ETH1&lt;/div&gt;192.168.10.254" style="text;html=1;align=center;verticalAlign=middle;resizable=0;points=[];autosize=1;strokeColor=none;fillColor=none;" vertex="1" parent="1">
          <mxGeometry x="1080" y="350" width="110" height="40" as="geometry" />
        </mxCell>
        <mxCell id="BQARD5PICSiKDkB4O1Qn-19" value="" style="endArrow=none;html=1;rounded=0;" edge="1" parent="1">
          <mxGeometry width="50" height="50" relative="1" as="geometry">
            <mxPoint x="1060" y="339.47" as="sourcePoint" />
            <mxPoint x="1312" y="339.47" as="targetPoint" />
          </mxGeometry>
        </mxCell>
        <mxCell id="BQARD5PICSiKDkB4O1Qn-13" value="&lt;div&gt;ETH0&lt;/div&gt;&lt;div&gt;215.144.33.197&lt;br&gt;&lt;/div&gt;" style="text;html=1;align=center;verticalAlign=middle;resizable=0;points=[];autosize=1;strokeColor=none;fillColor=none;" vertex="1" parent="1">
          <mxGeometry x="230" y="350" width="110" height="40" as="geometry" />
        </mxCell>
        <mxCell id="BQARD5PICSiKDkB4O1Qn-22" value="172.15.128.0/17" style="text;html=1;align=center;verticalAlign=middle;resizable=0;points=[];autosize=1;strokeColor=none;fillColor=none;" vertex="1" parent="1">
          <mxGeometry x="475" y="265" width="110" height="30" as="geometry" />
        </mxCell>
        <mxCell id="BQARD5PICSiKDkB4O1Qn-23" value="192.168.0.0/23" style="text;html=1;align=center;verticalAlign=middle;resizable=0;points=[];autosize=1;strokeColor=none;fillColor=none;" vertex="1" parent="1">
          <mxGeometry x="845" y="265" width="100" height="30" as="geometry" />
        </mxCell>
        <mxCell id="BQARD5PICSiKDkB4O1Qn-24" value="192.168.10.0/24" style="text;html=1;align=center;verticalAlign=middle;resizable=0;points=[];autosize=1;strokeColor=none;fillColor=none;" vertex="1" parent="1">
          <mxGeometry x="1160" y="265" width="110" height="30" as="geometry" />
        </mxCell>
        <mxCell id="BQARD5PICSiKDkB4O1Qn-25" value="215.114.33.192/29" style="text;html=1;align=center;verticalAlign=middle;resizable=0;points=[];autosize=1;strokeColor=none;fillColor=none;" vertex="1" parent="1">
          <mxGeometry x="110" y="410" width="120" height="30" as="geometry" />
        </mxCell>
        <mxCell id="BQARD5PICSiKDkB4O1Qn-26" value="215.114.33.198" style="text;html=1;align=center;verticalAlign=middle;resizable=0;points=[];autosize=1;strokeColor=none;fillColor=none;" vertex="1" parent="1">
          <mxGeometry x="230" y="485" width="110" height="30" as="geometry" />
        </mxCell>
      </root>
    </mxGraphModel>
  </diagram>
</mxfile>
